# xmcd
# 
# Track frame offsets:
#     150
#     17957
#     35747
#     58780
#     72575
#     88242
#     105880
#     119587
# 
# Disc length: 2071
# 
# Revision: 0
# Processed by: cddbd v1.5.2PL0 Copyright (c) Steve Scherf et al.
# Submitted via: fre:ac v1.0.17
# 
DISCID=72081508
DTITLE=Comes With The Fall - Comes With The Fall
DYEAR=2000
DGENRE=Rock
TTITLE0=We Come Undone
TTITLE1=The 3 Wishes
TTITLE2=No Need To Wonder
TTITLE3=Scarab
TTITLE4=Blackest Hour
TTITLE5=Smoke And Mirrors
TTITLE6=Unhinged
TTITLE7=Before The Fall
EXTD=
EXTT0=
EXTT1=
EXTT2=
EXTT3=
EXTT4=
EXTT5=
EXTT6=
EXTT7=
PLAYORDER=
